<svg viewBox="0 0 14 14" xmlns="http://www.w3.org/2000/svg"><path d="m3.2177798 7.482606c.00164.0025.00329.0049.00493.0074-.1068018.550029-.2152467 1.068428-.3249239 1.494403.113785-.435012.2263376-.972718.3372471-1.543696-.00246-.0033-.00493-.0058-.00739-.009-.00329.01725-.00616.0341-.00986.05135zm.017253-.04231c.0004108-.0029.00123-.0058.00164-.009-.00246-.0033-.00493-.0058-.00739-.009-.0004108.0029-.0008216.0062-.00164.009.00246.0033.00493.0058.00739.009zm-1.2352035 1.496868.026701.145004c.00822.04847.019307.09612.029165.144593.00986.04847.02095.09612.032862.143771.011091.04806.024236.0953.037791.14254.012323.04765.029165.09366.043953.140485l.02629.06901c.00822.023.019717.04519.029165.06737.00945.02218.022593.04354.033273.06531.00575.01109.013145.02054.019306.03122.00616.01068.013145.02054.02095.02999.0078.0094.031219.03779.050115.05299.00904.0082.019717.01438.029987.02095.010269.0066.021771.01109.031219.02136l-.00246-.0012c.027522-.000821.053812-.01273.075583-.02958.021771-.01684.040667-.03779.057919-.06038.033684-.04477.061206-.09407.085441-.144593.048882-.101051.087906-.207031.1232328-.313833.035327-.106801.066956-.214835.096943-.323691.014788-.05422.029165-.108856.042721-.163078l.037381-.164721.075172-.329854.037791-.164721c.013145-.05504.022593-.110498.034505-.165542l.1330914-.662582.00246.0115-.00493-.0066-.00411-.0058.00123-.0066.00986-.05094.00329.01232-.044364-.05053c-.016431-.0152-.03163-.03163-.048882-.0456-.017663-.01315-.034094-.02875-.053401-.03943l-.027933-.01766-.029987-.01397c-.019306-.01027-.041078-.01561-.062027-.023-.02136-.0062-.043131-.0099-.064903-.01438-.021771-.0021-.044775-.0057-.065724-.0062l-.6157533-.0012-1.0947181-.0057.00205-.0152c.039435.01643.080923.02793.1174819.05094.018485.01068.038202.01931.055455.03204l.051758.03738c.018074.0115.032451.02752.048471.04149.015199.01479.032451.02752.046007.04395.027933.03204.05833.06203.082155.09694l.037791.05094c.011913.01766.022593.03574.034095.05381s.023003.03533.033273.05422l.029987.05587c.020949.03697.037791.07558.055455.114195.018485.0382.033273.07764.049293.117072.016431.03902.029987.07887.043953.119125l.02095.05997.018485.06079c.011913.04067.025057.08051.035327.121589l.03204.122823.028344.123643c.00986.04108.016842.08257.025468.124054.00863.04149.016431.08298.023414.124466l.02136.124875zm0 0-.022182-.124876c-.00698-.04149-.015199-.08298-.023825-.124465-.00863-.04149-.01602-.08298-.02629-.124055l-.0287544-.123233-.0324513-.122411c-.010269-.04108-.023825-.08092-.035738-.12159l-.018485-.06038-.02095-.05956c-.013966-.03984-.027522-.07969-.044364-.118714-.01602-.03902-.030808-.07846-.049704-.11625-.018074-.0382-.035327-.07681-.056276-.113374l-.030397-.05545c-.010269-.01849-.022593-.03574-.033684-.0534s-.022593-.03574-.034505-.05299l-.038202-.05011c-.024236-.0345-.054633-.06367-.082566-.0953-.013966-.01602-.030808-.02834-.046007-.04272-.01602-.01356-.030397-.02916-.048061-.04026l-.051347-.03615c-.016842-.01232-.036559-.02013-.054633-.03081-.035738-.02177-.076815-.03286-.1154281-.04847l-.036559-.01479 1.7490844-.0074c.024646.00041.046828.0041.070243.0062.023003.0045.046007.0082.0686.01479.022182.0074.045185.01315.066135.02424l.032041.01479.029987.01848c.02095.0115.038202.02752.056687.04149.018074.01479.034094.03204.050936.04806l.050525.05751-.00123.0074-.00986.05135-.00288-.01232.00534.0078.0037.0053-.00123.0062-.1363776.662992c-.011913.05504-.021771.11091-.034916.165543l-.039024.164721-.1178927.493342c-.014377.05504-.029576.108856-.044775.163489-.030808.108445-.064081.216479-.1006402.323281-.036559.106802-.077226.212371-.1273405.313833-.025468.05053-.053401.100229-.087906.145004-.017253.02259-.03697.04354-.059563.06079s-.050525.02958-.079691.02999h-.00123l-.00123-.0012c-.00739-.0082-.018896-.01356-.029165-.02013-.010269-.0066-.02095-.01315-.030397-.02177-.019306-.01561-.035738-.0341-.050525-.05381-.0078-.0094-.014788-.01972-.02095-.0304-.00616-.01068-.013556-.02054-.019306-.03163-.011091-.02218-.024236-.04313-.033273-.06613-.00904-.023-.02095-.04478-.028754-.06778l-.025879-.06901c-.014377-.04683-.031219-.09325-.043542-.140896-.013145-.04724-.02629-.09489-.03697-.142539-.011502-.04765-.023003-.09571-.032451-.143772-.00945-.04806-.020539-.09612-.028754-.144593l-.02629-.145004zm3.9952077-4.96998h-.015199c-.174169 0-.3487488.468285-.5204532 1.159621-.1014617.415706-.2008695.910691-.296991 1.433198.0008215.0037.00123.0066.00205.01027.2698834-1.400747.5504434-2.602678.8310034-2.602678zm-.5356525 1.159621c.1717044-.691336.3462842-1.159621.5204532-1.159621h-.044364c-.1602024.071886-.3204051.521275-.4760892 1.159621zm-2.2243522 2.313491c-.1109095.570978-.2234621 1.108684-.3372471 1.543696-.050936.197994-.1022832.37586-.1536302.527436.1663643-.477321.3314963-1.238489.4921097-2.069078-.0008216-.000822-.00123-.0012-.00164-.0021zm1.9290043-.870435c-.0008216-.0033-.00123-.0066-.00205-.01027.096532-.522507.1959401-1.017492.296991-1.433198-.1039263.41776-.2066203.916853-.308082 1.443878.00205.01232.00411.023.00616.0345.0008215-.0041.00164-.0082.00205-.01232.00164-.0078.00288-.0152.00452-.02259zm-.9907918 3.464896c.2809708-.06449.5064868-.842091.9061719-3.022901.02095-.146647.051758-.283435.073529-.419813-.00205-.0115-.00411-.02218-.00616-.03409.1006401-.52415.2029233-1.021189.3064389-1.436484.1548625-.63506.3138329-1.082395.4736247-1.15387h-1.7002019c-.2698799.0649-.5073084.852771-.9176737 3.044261-.027933.131038-.048882.262075-.074761.393524.00246.0033.00493.0058.00739.009-.0004108.0029-.00123.0058-.00164.009.0004107.000822.00123.0012.00164.0021-.1602027.826481-.3241023 1.584363-.4896451 2.058809-.1158388.342587-.23291.55044-.3495704.55044h1.2072708zm2.8405162-2.828604c-.1244651.669565-.253038 1.30709-.3828433 1.811523.1326807-.505666.2645398-1.155102.3914696-1.839045-.0004108-.0033-.00123-.007-.00164-.01027-.00205.01273-.00452.02465-.00657.03779zm.00863-.02752c.0004108-.0016.0008215-.0037.00123-.0053-.0004108-.0033-.00123-.007-.00205-.01027-.0004107.0021-.0008215.0037-.0008215.0058.0008215.0033.00123.0066.00164.01027zm-.00205-.01027c-.1072201-.554959-.2144327-1.109918-.3380763-1.66159-.0620271-.275631-.1273405-.550851-.209085-.82073-.0414883-.134735-.0866737-.268648-.1437716-.397221-.028754-.06408-.061206-.126519-.1010509-.184028-.019717-.02875-.04231-.05504-.066957-.07887-.025879-.02177-.054633-.04067-.087084-.04888l.00246.000411c-.029165.000411-.061206-.000822-.088317.0012-.00698.0012-.015609.0012-.02136.0037l-.018074.0074c-.00616.0029-.011913.0074-.017663.01109-.00575.0037-.011502.0078-.016842.01314-.043132.03779-.075583.08873-.1043372.139664-.028754.05094-.053401.10598-.075994.160613-.023004.05463-.043132.11091-.06326.167186-.077637.225516-.1388423.456783-.1959402.688461-.056687.232088-.1076233.465409-.1565057.699551-.048882.234143-.094889.468285-.1396638.703249v-.0053l.040256.224283.041078.224284.083388.448157c.056687.298634.1150173.596857.1786876.893848.03163.148701.064903.296991.1006401.44446.017663.07394.036148.147469.055455.220998.019306.07353.039024.146647.060384.219354.02095.07271.043953.145004.067778.21689.025057.07147.050525.14295.080512.212371.029987.06942.06326.13761.1043371.200048l.01561.02341.017253.02177c.011091.0152.024236.02793.037381.04149.027111.02465.057509.04642.092425.05463l-.00205-.000411c.00698-.0012.013966-.0016.02095-.0033.00657-.0025.014788-.0049.019717-.0074.013966-.0078.027933-.01561.038202-.02588.022593-.0189.04231-.04395.060384-.06901.035738-.05135.064492-.107624.090782-.164311.02629-.05669.049293-.115839.071475-.175401.021771-.05915.041899-.119125.061616-.179509.038202-.120358.073118-.242358.1055694-.364359l.086263-.369698.086674-.370109c.014377-.06162.029576-.123233.041078-.18526l.037381-.186082.074761-.372574.037381-.186081c.011912-.06203.025879-.124055.036559-.186492zm0 0c-.010269.06244-.023414.124465-.034916.186903l-.035738.186492-.071475.373396-.035738.186492c-.011091.06244-.025468.124055-.039434.185671l-.083388.370931-.041899.18526-.042721.18526c-.03204.122822-.066546.244822-.1043371.36559-.019306.06038-.039434.120768-.061206.180331-.021771.05956-.045185.118714-.071475.176634-.0267.05751-.055455.115017-.092014.168007-.018896.02629-.038202.05176-.064492.07353-.012734.01191-.02629.01931-.040256.02752-.00904.0045-.016431.0062-.024647.0094-.00822.0021-.017253.0029-.025879.0041h-.0008216l-.00164-.000411c-.039845-.0094-.073118-.03327-.1018724-.05956-.013556-.01397-.027933-.02752-.039024-.04313l-.018074-.02259-.01602-.02383c-.042721-.06408-.075994-.133091-.1068017-.203334-.030808-.07024-.056687-.141718-.081745-.213604-.024236-.0723-.04765-.144593-.06901-.217711-.02136-.07312-.041899-.146236-.061206-.219765-.019717-.07353-.038202-.147469-.056276-.221408-.036148-.14788-.069832-.29617-.1022832-.444871-.064492-.297402-.1240544-.595625-.181563-.893848l-.085031-.448157-.041899-.224284-.039435-.224694-.0004108-.0025.0004108-.0029c.045596-.234553.092425-.469106.1421285-.703249.049704-.234142.1014617-.467463.1589703-.699962.057919-.232089.1195358-.463766.1988156-.690104.020128-.05669.040667-.112963.064081-.168007.023414-.05504.048061-.110088.077637-.162668.029987-.05217.062849-.104337.1096772-.145414.00575-.0053.011913-.01027.018485-.01438.00657-.0041.013145-.009.020128-.01274l.023825-.009c.0078-.0029.014788-.0025.022593-.0037.032451-.0021.060384-.00041.091192-.000821h.00123l.00123.000411c.03697.0094.068189.0304.096122.05381.02629.02547.049704.05258.069832.08257.040667.05915.073529.122412.1022833.187725.057509.129805.1022832.26454.1433608.400096.081334.271112.1454147.546743.2066203.822784.1191251.552494.2205868 1.108685.32287 1.664875zm1.87355-.570979c.260843-1.412658.554137-2.630199.836751-2.630199h-.06285c-.26454.118715-.528258 1.265601-.782528 2.587479.0025.01397.0045.02711.007.04026 0-.000822.000411-.0016.000411-.0029.00041.0016.000821.0033.000821.0053zm-.0094-.04806c.000411.0021.000822.0037.0012.0057.254271-1.321877.517989-2.468763.782529-2.587478-.264951.119125-.52908 1.268066-.783761 2.581728zm-1.8620481.629308c-.1269298.683943-.2587889 1.333379-.3914696 1.839045-.043542.168418-.087085.322048-.1306267.457193.1774552-.531133.3544997-1.381029.5233286-2.290897-.0004108-.0021-.0008215-.0037-.00123-.0053zm1.8628701-.623968c-.000411.0016-.000822.0033-.0012.0049.0025.01438.0049.02711.007.04067.000411-.0016.000822-.0037.000822-.0053-.0025-.01315-.0045-.02629-.007-.04026zm-.991259 3.489541c.2809708-.0649.5179886-.863451.917263-3.04385.02095-.146237.05176-.282203.07312-.41817-.0025-.01314-.0045-.02629-.007-.04026.000411-.0016.000821-.0033.0012-.0049-.000411-.0021-.000821-.0037-.0012-.0058.253038-1.304624.515113-2.44576.77842-2.564064h-1.5551976c-.014788-.0066-.029576-.01068-.044364-.01068h-.096943c-.2698798.06449-.5073084.852771-.9065827 3.043851-.00822.0497-.016431.09366-.024647.140485.0008215.0037.00123.007.00205.01027-.0004107.0021-.0004107.0037-.00123.0053.0004108.0016.0008216.0033.00123.0053-.1675966.903296-.3434087 1.747441-.5196316 2.274877-.1068018.330675-.2140143.548386-.3204053.596447zm2.359498-.385719c.117071-.244001.208674-.594393.276863-.98997.03656-.246876.07599-.462534.121589-.646561-.04806.189367-.09201.411186-.135967.669565-.06531.3812-.152398.721322-.262485.967377zm.559066-2.095779c-.000411-.0025-.000822-.0053-.0016-.0078-.02793.05915-.05463.125287-.07928.197584.02711-.07517.05587-.141718.0875-.200048 0-.000822-.000411-.0016-.000411-.0021-.0021.0045-.0041.0082-.0062.01232zm-.08133.191011c-.0058.01725-.01191.03533-.01725.0534.0058-.01766.0115-.03656.01725-.0534zm.08791-.20128c.000411-.000822.000822-.0021.0016-.0029 0-.000821-.000411-.0016-.000411-.0021-.00041.0012-.000821.0021-.0012.0029 0 .000821 0 .0016.000411.0025zm-1.088564-3.584843c-.02999.000822-.05669.0152-.0801.03204-.02218.0189-.04272.04026-.05997.06408-.03533.04683-.06367.09859-.08873.151165-.02547.05258-.04806.106802-.06942.161435-.02136.05463-.04067.110088-.05874.165543-.01849.05546-.03574.111731-.05258.168008-.01684.05628-.03245.112552-.04806.169239-.03081.113374-.05956.227159-.08626.340944-.107623.456783-.198815.917263-.283435 1.378975l-.0094.05258-.009-.05299-.000822-.0049.0189-.00041-.000822.0037v-.0033c.02588.148291.05381.295759.08174.444049l.08421.443228c.0571.295348.11625.590696.180331.8844.03204.147058.06531.293705.10105.439531.03574.145825.07394.29124.116661.435422.02136.07189.04395.143361.06819.214425.02465.07065.05094.140897.08051.209496.0304.06819.06326.135556.104337.196762l.01561.023.01725.02136c.01068.01479.02424.02711.03656.04026.0267.02382.05628.04436.08955.05258l-.0033-.000411c.04929-.00041.09735-.01684.138842-.04519.0419-.02752.07764-.0649.109267-.104748.03163-.03984.05915-.08421.0838-.129805.01232-.02218.02465-.04642.03492-.0686l.0304-.07271c.01068-.02424.01849-.04847.02793-.07312.0086-.02465.01849-.04847.02588-.07353.01602-.0497.03245-.09941.04601-.149523.01479-.05011.02752-.10064.04026-.151165.01273-.05053.02341-.101873.03574-.152809l.03122-.15363.02834-.154452.05751-.308903c.009-.05135.02259-.102694.03368-.154041l.03492-.153631c.0053-.02588.01273-.05176.02013-.0764l.02177-.07558c.01479-.05053.02834-.100229.04642-.151987l-.000411.0012.03738-.100229c.0066-.01643.01438-.03286.02136-.04929l.02177-.04888.01438-.03327.007.03574.0016.0082-.02136-.0025.0066-.01232-.000822.007-.03902-.233732c-.01191-.07764-.0267-.155273-.04108-.23332l-.08626-.46582c-.05833-.310136-.118303-.620272-.183617-.929176-.03245-.154452-.06696-.308493-.102694-.462123-.03574-.15363-.07394-.306849-.117071-.458837-.02136-.07599-.04395-.151576-.06901-.226337-.02506-.07476-.05094-.149112-.08174-.221819-.0304-.07271-.06367-.144593-.106391-.210728-.01109-.01643-.02136-.03327-.03409-.04806-.0062-.0078-.01191-.01561-.01849-.023l-.02054-.02136c-.02834-.02711-.06079-.05135-.09941-.06038h.000411l-.07147-.000411c-.01191.000411-.02383-.000821-.03574.0012l-.009.0012c-.0029.000411-.0062.000411-.0086.0016l-.01684.0066v-.00041l.06285.00041zm0 0-.06449.000411.01807-.0074c.0029-.0012.0058-.0012.009-.0016l.0086-.0012c.01191-.0025.02382-.0012.03574-.0016l.07189-.000411c.03902.009.0723.03327.101051.06038l.02095.02136c.0066.0074.01232.0152.0189.023.01314.0152.02341.03204.0345.04806.04313.06613.07764.138021.108856.210318.03122.0723.05833.147058.0838.221819.02547.07476.04888.150344.07106.225927.08873.303563.159792.611645.225927.920138.06613.308493.127341.618629.186492.929175l.08791.46541c.01438.07764.02958.154862.0419.23332l.03943.233321.000822.0041-.0016.0033-.0062.01232-.0152.02999-.0062-.03245-.0012-.0074.02136.0025-.02095.04847c-.007.01643-.01438.03204-.02095.04847l-.03656.09941-.00041.0012c-.01602.04724-.0304.09859-.04436.148701l-.02177.07558c-.0074.02547-.01438.0497-.01972.07558l-.03409.152809c-.01109.05135-.02382.101872-.03286.153219l-.05669.309315-.02793.154862-.03122.154452c-.01191.05135-.02218.102694-.03533.15363-.01273.05094-.02506.101873-.04026.152398-.01356.05094-.02999.101051-.04601.151166-.0074.02506-.01725.0497-.02588.07476-.0094.02465-.01725.05012-.02793.07394l-.02999.07271c-.01191.02506-.02341.04806-.03615.07147-.02547.04642-.0534.09201-.08626.133913-.03286.0419-.07024.08174-.11625.111731-.04519.03081-.09982.0497-.155684.05012h-.0016l-.0016-.000411c-.04067-.0099-.07435-.03409-.103105-.06038-.01356-.01397-.02793-.02752-.03902-.04313l-.01807-.02259-.01602-.02382c-.04231-.06408-.07558-.132681-.10598-.201691s-.05587-.140486-.08092-.211961c-.02424-.07147-.04683-.143361-.06819-.216068-.04231-.144593-.0801-.290829-.115428-.437066-.03533-.146236-.0686-.293294-.100229-.440352-.06326-.294526-.121179-.589874-.177456-.885633l-.08298-.443638c-.02711-.147879-.05463-.296169-.0801-.444459l-.000411-.0021.000411-.0016.000411-.0016.01109-.04642.0078.04601.000821.0053-.0189-.000411c.04313-.230856.0875-.461301.135145-.691336.04765-.230035.09777-.459248.154452-.687228.02793-.113785.05792-.22757.08955-.340534.01602-.05669.03204-.112963.0497-.168829.01766-.05587.03492-.112141.05422-.167596.0189-.05587.03902-.11091.06038-.165543.02136-.05463.04477-.108856.07065-.161435.02588-.05258.05463-.104337.09037-.150755.01766-.02341.0382-.04477.0608-.06367.02382-.01684.05094-.03122.08092-.03163zm1.090199 3.592647c-.000411-.0029-.000821-.0053-.0016-.0078-.03163.05833-.06079.124876-.0875.200048-.000411.00041-.000411.000821-.000411.000821-.0062.01684-.0115.03574-.01725.0534-.02136.06655-.04231.137199-.06203.214836-.0456.184028-.08503.399685-.121589.646561-.06778.395988-.159792.74597-.276863.989971-.0267.05956-.05463.113374-.08421.160613.158149-.235785.277274-.653545.361073-1.139904.07517-.505665.161435-.882346.290418-1.118953zm.807586 2.474515s.377914-.216068.453497-1.047889c.108034-1.166194.302331-1.576559.918084-1.781947h-1.760175c-.188546.03163-.315887.135145-.412009.338069.000411.000821.000411.0016.000411.0021-.000411.0012-.000821.0021-.0016.0029.000411.0025.000822.0049.0016.0078-.127751.233731-.212782.605894-.287132 1.105809-.08257.480608-.200459.893849-.356965 1.126759-.0916.1487-.196761.234963-.315886.234963zm-9.2202788-.02177c-.011502-.01232-.028344-.01766-.041488-.02752-.00698-.0045-.013966-.0094-.020128-.01479-.00616-.0053-.013145-.01068-.018485-.01684-.024236-.023-.043542-.05094-.061206-.07928-.00986-.01356-.016431-.02917-.024647-.04354-.00822-.01438-.015609-.02958-.022182-.04477l-.02095-.0456-.018074-.04683c-.012734-.03081-.023004-.06285-.033273-.09448-.011091-.03163-.020539-.06367-.029576-.09571-.019306-.06408-.034505-.129395-.050525-.194297-.015199-.06531-.028754-.130627-.042721-.19594l-.03697-.197173c-.012323-.06572-.022182-.131859-.036148-.197172-.013966-.06531-.025879-.130627-.041899-.19553l-.023004-.09735-.025879-.09653c-.016431-.0649-.038202-.127751-.057098-.191422-.022593-.06244-.042721-.126108-.06901-.187314-.023825-.06244-.05299-.122-.081334-.181973l-.04765-.0875c-.01602-.02916-.035327-.05628-.052579-.08421-.016842-.02875-.038613-.05381-.05833-.08051-.018896-.02711-.04231-.05053-.064492-.07517-.02136-.02547-.046829-.04601-.071475-.06819-.023414-.02341-.052168-.03984-.078458-.05956-.013145-.01027-.027522-.01807-.041899-.02547l-.043542-.02341c-.029576-.01438-.061206-.02383-.091603-.03615l.0037.000411h-.033273l.00288-.02506c.032451.01109.066135.01972.097765.03286l.046418.02218c.01561.0074.031219.01438.045185.02465.058741.03574.1129634.07846.1606134.127341.048882.04806.091192.101872.1306268.157738.018485.02875.038613.05628.055455.08585l.050115.08914c.029987.06121.060384.122001.085031.18526.027522.06244.048472.12693.071475.1906.01068.03204.020128.0649.029987.09694.00986.03204.020128.0649.028344.09777.017663.06531.034916.131038.049293.197173.01602.06572.029165.13227.04231.198815.013966.06613.024236.133092.036148.199637l.035737.199227c.012323.06613.026701.131859.040667.197994.01602.06531.029987.131448.048882.19594.00863.03245.017663.0649.028343.09694.010269.03204.019717.06408.032451.0953l.017663.04724.020128.04601c.00657.0152.013556.0304.021771.04519.00822.01479.014788.02999.024236.04354.017663.02793.036148.05587.059152.07846.00534.0062.011502.0115.017663.01643.00616.0049.012323.01027.019306.01438.013145.01027.027933.01356.044364.03081l-.00863-.0041c.022182-.000411.043953-.0094.06326-.02218.019306-.01273.036148-.0304.052169-.04806.015609-.01848.029576-.0382.043131-.05874.012734-.02054.025468-.0419.03697-.06326.046007-.08667.083388-.178277.1170712-.271113.00863-.02341.016842-.04601.023825-.06983l.066956-.212372.078869-.285489.015199.0041c-.025057.09489-.052168.189367-.080512.283024-.028344.09366-.059152.187314-.093246.279328-.034094.09201-.071886.183206-.1183035.269469-.023414.04313-.049704.08503-.081745.122411-.01602.01849-.034094.03574-.054222.04929-.020128.01356-.043953.023-.0686.023zm0 0c.024647-.000411.048061-.01027.068189-.02383s.037791-.03122.053401-.0497c.031219-.03779.056687-.07969.079691-.123233.045596-.08667.081334-.178276.1146065-.27029.065313-.18485.1170711-.373806.1663643-.563585l.015199.0041-.077637.286721-.065724.212782c-.00698.02383-.015609.04765-.023825.07065-.033684.09325-.070653.185671-.1170711.273987-.011502.02218-.024236.04354-.037381.0649-.013556.02095-.027933.04149-.044364.06121-.016842.0189-.034094.0382-.056276.05217-.02136.01438-.046828.02588-.074761.02588h-.00493l-.0037-.0041c-.00698-.0078-.025468-.01561-.039435-.02588-.00739-.0045-.014377-.0099-.02095-.01561-.00698-.0053-.013556-.01109-.019307-.01766-.025057-.02465-.044774-.0534-.062849-.08257-.00986-.01438-.016431-.02999-.025057-.04478-.00863-.01479-.01561-.0304-.022182-.04601l-.020539-.04683-.018074-.04765c-.012734-.03163-.022593-.06408-.033273-.09612-.011091-.03204-.020128-.0649-.029165-.09735-.019307-.0649-.034094-.131037-.050115-.196762-.014377-.06613-.028754-.13268-.041488-.198815l-.036559-.199637c-.012323-.06614-.022593-.133092-.03697-.198816-.013556-.06614-.0267-.13227-.042721-.197583-.014788-.06572-.03204-.131038-.050115-.19594-.00822-.03245-.018074-.0649-.028344-.09694-.010269-.03204-.019717-.06449-.030397-.09612-.023004-.06326-.043542-.127341-.070243-.188957-.023825-.06285-.054222-.122822-.082977-.183206l-.048882-.08791c-.016842-.02917-.036148-.05628-.054222-.08462-.038202-.05463-.07928-.107623-.126519-.154452-.046418-.04765-.098586-.08955-.1552733-.124054-.013556-.0099-.028344-.01684-.043542-.02382l-.044775-.02177c-.030397-.01273-.062849-.02136-.094068-.03204l-.0718806-.025058.110088.000411.00123.00041c.03163.01273.064081.023.094479.03779l.044775.02424c.015199.0078.029987.01602.043132.0267.027111.02013.056687.03779.080512.06162.025057.023.051347.04436.072707.07024.022593.02547.046418.04929.065313.07723.019717.02752.041899.05299.058741.08216.017663.02875.03697.05628.05299.08585l.04765.08873c.028344.0608.057919.121179.081334.184028.02629.06162.046007.125697.068599.188957.018896.06408.040256.127751.056276.192654l.025468.09694.022593.09776c.015609.0649.027933.131038.041078.196351.013556.06573.023414.131449.035327.197173l.034505.197172c.012734.06531.025879.131038.039845.196351.015199.0649.029576.130216.048061.194297.00822.03245.017663.06449.027933.09612.00986.03204.019717.06367.032041.09489l.017253.04683.020128.04601c.00616.01561.013556.0304.021771.04519.00822.01479.014788.02999.024236.04395.017663.02834.036148.05628.059973.07969.00534.0062.011913.01191.018485.01684.00657.0049.012734.01068.019717.0152.00698.0045.029987.01561.041078.02834zm3.787355 0-.02136.0078c-.00739.0012-.014788.0021-.022593.0033-.037381-.009-.069421-.03163-.097354-.0571-.013145-.01356-.027111-.0267-.038202-.04231l-.017663-.02218-.01602-.02383c-.04231-.06326-.075583-.131859-.1059802-.201691-.030397-.06983-.056276-.141307-.081744-.212782-.024236-.07189-.04765-.144593-.06901-.2173-.02136-.07271-.041899-.146237-.061206-.219765-.0197185-.073534-.0382034-.147063-.0566883-.221003-.0365591-.147469-.0706535-.295759-.1035156-.444049-.0653134-.296991-.1256975-.594804-.1844384-.893438l-.086263-.447746-.04231-.223872c-.014377-.07517-.027111-.149523-.040667-.224695l.02629.000411-.00329.01725-.00329.01684v-.0045c.013556.07476.025879.148701.040667.22264l.042721.222641.086674.44487c.058741.29617.1170711.59275.1811522.888098.03204.147469.065313.294937.1006401.441584.035327.146647.072707.292884.1150173.437888.041899.145004.089138.288364.1474686.426796.030397.0686.06326.136377.1047479.198815.020128.03163.044364.05997.070653.08626.027522.02465.057919.04601.093246.05587l-.00164-.000411c.022593-.000411.044364-.0094.06367-.02218.018896-.01356.036559-.02958.051347-.04806.00822-.0086.015199-.01848.022182-.02793.00698-.0094.013966-.01931.020128-.02958.00616-.01027.025057-.04108.036559-.06203.045596-.08503.082155-.17458.1154281-.264951.00822-.02259.016431-.04519.024236-.06819.00863-.02259.015199-.0456.021771-.06901l.040667-.139253.080512-.278917.00411.0012c-.04765.177866-.098175.354911-.1602027.528258-.01561.04313-.03204.08626-.049704.128984-.017663.04272-.036559.08462-.057098.125697-.00986.02095-.021771.04067-.032862.0608-.012323.01931-.023414.03943-.037791.05792-.00698.009-.013556.0189-.02095.02752l-.023003.02547c-.00822.0078-.017663.01479-.02629.02259-.00945.0066-.019717.01191-.029576.01766zm0 0c.00986-.0062.020128-.01109.029576-.01807.00863-.0074.017663-.01479.025879-.02259l.023003-.02547c.00739-.0086.013966-.01848.02095-.02752.013966-.01807.025057-.03861.037381-.05792.01068-.02013.022593-.03985.032451-.06079.020539-.04108.039024-.08339.056687-.125698.017663-.04231.033684-.08544.049293-.128983.061206-.173348.1113203-.350803.1581488-.528669l.00411.0012-.078869.279328-.039024.139664c-.00616.023-.013145.04683-.02136.06942-.00739.023-.015609.0456-.023825.0686-.032862.09119-.0686.181152-.1137849.267415-.011502.02136-.023003.04272-.036559.06326-.00657.01027-.013145.02054-.020539.0304-.00739.0099-.014377.01972-.022593.02916-.00822.0094-.033684.03615-.053401.05094-.020949.01397-.044774.02465-.071064.02547h-.0008216l-.0008215-.000411c-.038613-.01027-.071064-.03286-.1002294-.05833-.027522-.02711-.052579-.05628-.073529-.08832-.0431335-.063239-.077228-.131428-.1084469-.200438-.0603841-.139253-.1092665-.283025-.1523979-.427618-.0431315-.144593-.082566-.29124-.1187143-.437887-.0361483-.147058-.0702427-.294116-.1022832-.441995-.0644919-.295348-.1256975-.591518-.1832061-.888098l-.0850307-.445281-.0418991-.222641c-.014377-.07394-.027111-.149112-.039845-.223462l-.0004108-.0025.0004108-.0021.00329-.01807.00329-.01725.013966-.06983.012323.07024.07969.448978.082155.448568c.055866.298634.1133742.597268.1758122.89467.06326.297402.1298052.593982.2148358.886044.02095.07312.043953.145415.068189.217711.025057.07147.050525.143361.080923.213193.030397.06983.06326.138432.1051587.201691l.01602.02382.017663.02259c.011091.0152.025057.02875.038202.04231.027933.02547.059563.04806.096943.05751.00739-.0012.015199-.0021.022593-.0033l.02136-.0078zm3.6784988 0c-.03697-.009-.0686-.03122-.09653-.05628-.01314-.01356-.02711-.02629-.0382-.04149l-.01766-.02218-.01602-.02341c-.0419-.06244-.07517-.130627-.105569-.199226-.02999-.06901-.05628-.139664-.08133-.210728-.02424-.07107-.04724-.14295-.0686-.215247-.04272-.144182-.08133-.290008-.117893-.435833-.03656-.145826-.07065-.292473-.103105-.439531-.06531-.293704-.125287-.589052-.183617-.88399l-.08585-.443227c-.02752-.147879-.05587-.295759-.08174-.444049l.02793-.000821-.000821.0057v-.0049c.02629.148701.05422.29617.08174.44446l.08339.444459c.05587.29617.114606.591518.176633.886455.03081.147469.06367.294527.09818.441174s.07189.292472.113785.437065c.04149.144593.08791.287954.146236.426797.02999.06901.06244.136788.103926.199637l.01561.02341.01725.02218c.01109.0152.02465.02793.03738.0419.02752.02506.05833.04724.09489.05628h-.00041l.0345-.0029c.0115-.000822.02218-.0053.03327-.0074s.02177-.0074.03204-.01191c.01068-.0045.02136-.009.03081-.01561.0094-.0062.02013-.0115.02917-.01848l.02711-.02177c.009-.007.01643-.01602.02506-.02382.0086-.0078.01643-.01602.02383-.02506.0074-.009.02999-.03533.04313-.05422.0066-.0094.01438-.01848.01972-.02834l.01725-.0304.01725-.02999c.0062-.0099.01068-.02054.01561-.03081l.0304-.06244.0021.000822c-.02013.04108-.04149.08133-.06531.119946-.01191.01931-.02465.0382-.03779.05669-.01314.01848-.02752.03615-.04272.0534-.0074.0086-.01561.01643-.02341.02465-.0078.0082-.01684.01561-.02506.023-.0082.0074-.03574.02834-.05545.03985-.01027.0049-.01972.0115-.0304.0152-.01068.0045-.02095.0086-.03204.0115-.01068.0037-.02218.0053-.03327.007-.01109.0016-.02259.0016-.03409.0025zm0 0c.0115-.000822.023-.000411.03409-.0029.01109-.0025.02259-.0037.03327-.0074.01109-.0029.02136-.007.03204-.0115.01068-.0041.02013-.01027.0304-.0152.01972-.0115.0382-.02506.05545-.03984.0082-.0078.01725-.01479.02506-.023.0078-.0082.01602-.01602.02341-.02506.0152-.01684.02916-.03492.04272-.0534s.02588-.03738.03779-.05669c.02382-.03902.04477-.07928.0649-.119946l.0021.0012-.02999.06244c-.0053.01027-.0094.02095-.01561.03081l-.01725.02999-.01725.0304c-.0053.01068-.01314.01931-.01972.02875-.01314.01931-.02793.03697-.04272.05463-.007.0094-.01561.01725-.02382.02547-.0082.0082-.01602.01684-.02506.02424l-.02711.02177c-.009.0074-.01972.01273-.02917.0189-.0094.0062-.02013.0115-.03122.01602-.01068.0045-.02095.0099-.03286.01232-.01191.0025-.02259.007-.0341.0078l-.03533.0029h-.00041c-.03779-.009-.06983-.03163-.09777-.05669-.01314-.01356-.02711-.0267-.03861-.0419l-.01766-.02218-.01602-.02341c-.04231-.06285-.07599-.131038-.106801-.199637-.05997-.138432-.108445-.281793-.151577-.426386-.04313-.144593-.08216-.290419-.118714-.436655-.03656-.146236-.07065-.293294-.103105-.440352-.06531-.294526-.124054-.590285-.181563-.886044-.02834-.147879-.05751-.295758-.08421-.444459s-.05463-.296991-.0801-.445282l-.000411-.0025.000411-.0021.000821-.0049.01438-.07969.01356.07928c.02547.14829.05299.296169.0801.444049l.08174.444049c.05504.295758.112142.591106.174169.885633.03081.147058.06367.294115.09818.440352.03451.146236.07189.292061.114196.436655.02095.0723.04354.143771.06778.215246.02465.07106.05053.141718.0801.210728.02999.06901.06326.136789.104747.199637l.01561.02341.01766.02218c.01109.0152.02506.02793.03779.0419.02793.02506.05915.04765.09612.05669zm.840037-2.206278c-.01027.03574-.01766.07271-.02341.109677-.0058.03697-.01314.07394-.02341.109677l-.02999-.0082c.01027-.03615.02383-.07106.03861-.10557.01479-.0345.02793-.06942.03861-.105158zm0 0c-.01027.03574-.01766.07271-.02341.109677-.0058.03697-.01314.07353-.02341.109267l-.02999-.0082c.01027-.03574.02383-.07065.0382-.105159.01438-.0345.02793-.06942.0382-.105158zm.01766-.05422.01356.0074-.02875-.01109c.0053 0 .01068.0012.0152.0037zm0 0c.0041.0033.009.0049.01438.0057l-.02875-.01109.01438.0053z"/></svg>