<svg xmlns="http://www.w3.org/2000/svg" viewBox="0 0 14 14"><path d="m3.218 7.483.005.007c-.107.55-.216 1.068-.325 1.494.114-.435.226-.972.337-1.543l-.007-.01zm.017-.043.002-.009-.008-.009-.001.01zM2 8.937l.027.145q.013.072.029.145a3 3 0 0 0 .07.286q.021.072.044.14l.027.07q.014.034.029.067.016.032.033.065l.02.031q.008.017.02.03c.008.01.032.038.05.053q.015.013.03.021c.01.007.022.011.032.022l-.003-.001a.13.13 0 0 0 .076-.03.3.3 0 0 0 .058-.06 1 1 0 0 0 .085-.145q.072-.152.123-.314a7 7 0 0 0 .14-.487l.037-.164.076-.33.037-.165q.018-.083.035-.165l.133-.663.002.011-.005-.006-.004-.006.002-.007.01-.05.003.012-.045-.05q-.023-.024-.049-.046-.025-.021-.053-.04l-.028-.017-.03-.014q-.03-.014-.062-.023t-.065-.015l-.065-.006-.616-.001-1.095-.006.002-.015c.04.016.081.028.118.05.018.012.038.02.055.033l.052.037q.026.02.048.042c.015.015.033.027.046.044.028.032.059.062.082.097l.038.05.034.054.034.055.03.056q.029.056.055.114.026.057.05.117.024.059.043.119l.021.06.019.06q.019.061.035.122l.032.123.028.124q.014.06.026.124.013.062.023.124l.022.125zm0 0-.022-.125-.024-.124q-.012-.063-.026-.124l-.03-.123-.032-.123q-.016-.06-.035-.121l-.019-.06-.02-.06q-.021-.06-.045-.12-.023-.058-.05-.115-.026-.058-.056-.114l-.03-.055q-.016-.028-.034-.054l-.035-.053-.038-.05c-.024-.034-.055-.063-.083-.095q-.022-.022-.046-.043c-.016-.013-.03-.029-.048-.04l-.051-.036q-.027-.016-.055-.03c-.035-.023-.076-.034-.115-.05l-.037-.014L2.82 7.2q.035.002.07.007.035.006.068.014.035.01.066.025l.033.014.03.019q.03.018.056.041t.051.048l.05.058v.007l-.01.052-.003-.013.005.008.004.005-.002.007-.136.663q-.017.082-.035.165l-.039.165-.118.493-.044.164q-.047.162-.101.323a3 3 0 0 1-.127.314 1 1 0 0 1-.088.145q-.026.034-.06.06c-.034.027-.05.03-.08.03h-.002q-.012-.012-.03-.02l-.03-.022a.3.3 0 0 1-.071-.085l-.02-.031c-.01-.022-.024-.043-.033-.066q-.015-.034-.028-.068l-.026-.07q-.024-.069-.044-.14l-.037-.143-.032-.143-.03-.145zm3.995-4.97H5.98c-.174 0-.349.468-.52 1.16-.102.416-.201.91-.298 1.433l.002.01c.27-1.4.55-2.602.831-2.602zm-.536 1.16c.172-.692.347-1.16.52-1.16h-.044c-.16.072-.32.521-.476 1.16M3.235 7.44a26 26 0 0 1-.337 1.544q-.076.299-.154.527c.167-.477.332-1.238.492-2.069zm1.929-.87-.002-.01c.097-.523.196-1.018.297-1.434a29 29 0 0 0-.308 1.444l.006.035.002-.013zm-.99 3.465c.28-.065.506-.842.905-3.023.021-.147.052-.284.074-.42l-.006-.034c.1-.524.203-1.021.306-1.437.155-.635.314-1.082.474-1.153h-1.7c-.27.064-.508.852-.918 3.044-.028.13-.049.262-.075.393l.008.01-.002.008.002.002c-.16.827-.324 1.585-.49 2.06-.116.342-.233.55-.35.55H3.61zm2.84-2.829a29 29 0 0 1-.383 1.812c.133-.506.264-1.155.391-1.84l-.001-.01zm.008-.027.002-.006-.002-.01-.001.006zm-.002-.01c-.107-.556-.214-1.11-.338-1.662-.062-.276-.127-.551-.209-.821a4 4 0 0 0-.144-.397 1 1 0 0 0-.1-.184.5.5 0 0 0-.068-.08.2.2 0 0 0-.087-.048h.003q-.046 0-.089.002-.011 0-.02.003l-.019.008-.018.01-.016.014a.5.5 0 0 0-.105.14q-.043.077-.076.16-.034.083-.063.167a8 8 0 0 0-.196.689 21 21 0 0 0-.157.7q-.072.35-.14.703v-.006l.041.225.041.224.084.448q.084.449.178.894a16 16 0 0 0 .156.665 8 8 0 0 0 .128.437q.038.107.081.212.044.106.104.2l.016.024.017.021q.017.022.038.042a.2.2 0 0 0 .092.054h-.002l.02-.003q.012-.004.02-.008a.2.2 0 0 0 .039-.026.4.4 0 0 0 .06-.069q.053-.077.091-.164.04-.086.071-.175.032-.09.062-.18.057-.18.106-.364l.086-.37.087-.37c.014-.062.03-.123.04-.185l.038-.186.075-.373.037-.186q.02-.093.037-.186zm0 0q-.016.093-.035.186l-.035.187-.072.373-.036.187q-.016.093-.039.185l-.083.371-.042.186-.043.185a8 8 0 0 1-.166.546 3 3 0 0 1-.071.176 1 1 0 0 1-.092.168.4.4 0 0 1-.064.074q-.02.017-.04.027l-.025.01-.026.004h-.003a.23.23 0 0 1-.102-.06q-.021-.02-.039-.043l-.018-.023-.016-.024a1.3 1.3 0 0 1-.107-.203 3 3 0 0 1-.081-.214 6 6 0 0 1-.13-.437l-.057-.221q-.054-.223-.102-.445a40 40 0 0 1-.182-.894l-.085-.448-.042-.225-.039-.224v-.006q.068-.351.142-.703.074-.35.16-.7c.057-.232.119-.464.198-.69q.029-.086.064-.168.034-.083.078-.163a.6.6 0 0 1 .128-.16q.01-.007.02-.012l.024-.01.022-.003c.033-.002.06 0 .092 0h.002c.037.009.068.03.096.053q.04.038.07.083.06.09.102.188c.058.13.103.264.144.4.08.271.145.547.206.823.12.552.22 1.108.323 1.665zm1.874-.572c.26-1.412.554-2.63.837-2.63h-.063c-.265.119-.528 1.266-.783 2.588l.007.04v-.003zm-.01-.048.002.006c.254-1.322.518-2.469.782-2.587-.265.119-.529 1.268-.784 2.581m-1.862.63a28 28 0 0 1-.391 1.839 8 8 0 0 1-.13.457c.177-.531.354-1.381.523-2.291zm1.863-.624v.005l.006.04v-.005zm-.99 3.49c.28-.066.517-.864.916-3.045.021-.146.052-.282.073-.418l-.007-.04.002-.005-.002-.006c.253-1.304.516-2.446.779-2.564H8.1a.1.1 0 0 0-.045-.01H7.96c-.27.064-.507.852-.906 3.043l-.025.14.002.011-.001.005.001.006c-.167.903-.343 1.747-.52 2.275-.106.33-.213.548-.32.596zm2.359-.387c.117-.244.208-.594.276-.99a7 7 0 0 1 .122-.646 9 9 0 0 0-.136.67c-.065.38-.152.72-.262.967zm.559-2.095-.002-.008q-.042.09-.08.197.042-.112.088-.2V7.55zm-.082.19-.017.054zm.088-.2.002-.003v-.003l-.002.003zM9.731 3.967A.15.15 0 0 0 9.65 4a.4.4 0 0 0-.06.064 1 1 0 0 0-.09.15 2 2 0 0 0-.127.328 6 6 0 0 0-.101.337q-.046.17-.086.341c-.108.457-.199.917-.284 1.379l-.01.053-.008-.053v-.005h.018v.003-.003q.038.221.08.444l.085.443q.085.443.18.884.049.22.102.44a10 10 0 0 0 .184.65q.037.105.08.21c.031.067.064.135.105.196l.016.023.017.021q.016.022.037.04a.2.2 0 0 0 .09.053h-.004a.25.25 0 0 0 .139-.045.5.5 0 0 0 .109-.105 1 1 0 0 0 .119-.199l.03-.072.028-.073q.014-.037.026-.074.024-.075.046-.15t.04-.15l.036-.153.031-.154.029-.154.057-.31c.009-.05.023-.102.034-.153l.035-.154.02-.076.022-.076q.02-.075.046-.152v.001l.037-.1.021-.05.022-.048.014-.033.007.035.002.008-.021-.002.006-.012v.007l-.04-.234q-.018-.117-.04-.233l-.087-.466q-.086-.465-.184-.93a22 22 0 0 0-.102-.462 10 10 0 0 0-.186-.685 3 3 0 0 0-.082-.222 1.3 1.3 0 0 0-.106-.21q-.017-.026-.035-.048-.008-.012-.018-.023l-.02-.022a.2.2 0 0 0-.1-.06h-.107l-.009.002q-.005 0-.008.002l-.017.006h.063zm0 0h-.065l.018-.007q.004-.002.01-.002l.008-.001q.018-.002.036-.002h.071a.23.23 0 0 1 .101.06l.021.022.02.023q.018.023.034.048.063.1.109.21a3 3 0 0 1 .084.222q.037.111.07.226c.09.303.16.611.226.92q.1.462.187.929l.088.465q.023.116.042.234l.04.233v.004l-.002.003-.006.013-.015.03-.006-.033-.001-.007.021.002-.02.049-.022.048-.036.1q-.025.073-.045.15l-.022.075-.02.076-.034.153c-.01.051-.024.101-.033.153l-.056.31-.028.154-.032.154q-.016.078-.035.154-.018.077-.04.152-.021.077-.046.152l-.026.074q-.013.038-.028.074l-.03.073-.036.072a1 1 0 0 1-.086.133.5.5 0 0 1-.117.112c-.045.031-.1.05-.155.05h-.003a.24.24 0 0 1-.104-.06q-.02-.02-.039-.044l-.018-.022-.016-.024q-.061-.097-.106-.202c-.045-.105-.056-.14-.08-.212a6 6 0 0 1-.069-.216 10 10 0 0 1-.115-.437 18 18 0 0 1-.1-.44q-.095-.442-.178-.886l-.083-.443-.08-.445v-.005l.012-.047.007.046.001.006h-.019q.064-.348.135-.692a18 18 0 0 1 .244-1.028q.023-.085.05-.169.026-.084.054-.167l.06-.166q.033-.082.071-.161a1 1 0 0 1 .09-.151.4.4 0 0 1 .062-.064.15.15 0 0 1 .08-.031zm1.09 3.592-.002-.008a1.4 1.4 0 0 0-.087.2v.001q-.01.026-.018.054a4 4 0 0 0-.062.215q-.068.277-.122.646c-.067.396-.16.746-.276.99q-.04.09-.085.16c.159-.235.278-.653.361-1.14.076-.505.162-.882.29-1.118zm.807 2.475s.378-.216.454-1.048c.108-1.166.302-1.577.918-1.782h-1.76c-.189.032-.316.135-.412.338v.002l-.001.003.001.008c-.128.234-.213.606-.287 1.106-.082.48-.2.893-.357 1.126-.091.15-.197.235-.316.235zm-9.22-.022c-.011-.012-.028-.018-.041-.028l-.02-.014q-.011-.008-.019-.017a.4.4 0 0 1-.061-.08q-.014-.02-.025-.043l-.022-.045-.02-.045-.019-.047q-.019-.047-.033-.095l-.03-.095c-.02-.064-.034-.13-.05-.195q-.024-.097-.043-.196l-.037-.197q-.016-.1-.036-.197-.02-.098-.042-.195l-.023-.098-.026-.096c-.016-.065-.038-.128-.057-.192-.023-.062-.043-.126-.07-.187q-.036-.093-.08-.182l-.048-.088q-.025-.043-.053-.084t-.058-.08-.065-.075c-.02-.026-.046-.046-.071-.069-.023-.023-.052-.04-.078-.06a.3.3 0 0 0-.042-.025l-.044-.023q-.045-.02-.091-.036h.003-.033l.003-.025q.049.015.098.033l.046.022q.024.011.045.025a.8.8 0 0 1 .16.127q.074.073.131.158.03.042.056.086l.05.089q.046.091.085.185c.028.063.049.127.072.19l.03.098q.016.048.028.097.027.098.05.198.022.098.041.198t.037.2l.035.2.041.197q.022.1.049.196l.028.097q.014.048.033.095l.017.048.02.046.022.045q.011.023.024.043a.4.4 0 0 0 .077.095l.02.015c.013.01.028.013.044.03zq.034-.001.064-.022a.3.3 0 0 0 .052-.048.6.6 0 0 0 .08-.122 2 2 0 0 0 .14-.34l.068-.213.079-.286.015.004a8 8 0 0 1-.08.284q-.044.14-.094.279a2 2 0 0 1-.118.27.7.7 0 0 1-.082.122.3.3 0 0 1-.054.049.13.13 0 0 1-.069.023m0 0q.038-.001.068-.024a.3.3 0 0 0 .054-.05.7.7 0 0 0 .08-.123c.045-.086.08-.178.114-.27a7 7 0 0 0 .166-.564l.016.004-.078.287-.066.213q-.01.036-.024.07a2 2 0 0 1-.154.34 1 1 0 0 1-.044.06.3.3 0 0 1-.057.053.14.14 0 0 1-.074.026h-.005L2.4 10.03c-.007-.008-.026-.016-.04-.026l-.02-.016-.02-.018a.4.4 0 0 1-.063-.082q-.013-.022-.025-.045l-.022-.046-.02-.047-.018-.047q-.018-.048-.034-.096L2.11 9.51c-.02-.065-.034-.13-.05-.197l-.042-.198-.036-.2q-.017-.1-.037-.199-.02-.1-.043-.197a4 4 0 0 0-.078-.293l-.03-.096c-.024-.064-.044-.128-.07-.19q-.039-.092-.084-.183L1.59 7.67q-.026-.044-.054-.085a1 1 0 0 0-.126-.155.8.8 0 0 0-.2-.147l-.044-.022q-.046-.018-.094-.032L1 7.204h.111q.048.018.095.038l.045.025q.023.01.043.026.042.028.08.062c.025.023.052.044.073.07q.035.038.065.077.032.04.059.082.028.044.053.086l.048.09c.028.06.058.12.081.183.026.062.046.126.069.19.018.063.04.127.056.192l.025.097.023.097q.022.098.041.197.019.098.035.197l.035.197.04.196q.022.098.048.195a2 2 0 0 0 .06.19l.017.048.02.046.022.045q.011.023.024.044a.4.4 0 0 0 .079.096q.008.008.02.015c.006.005.03.016.04.029zm3.787 0-.02.008-.023.003a.23.23 0 0 1-.098-.057q-.02-.02-.038-.042l-.018-.023-.016-.023a1.3 1.3 0 0 1-.106-.202 3 3 0 0 1-.15-.43 8 8 0 0 1-.118-.44 18 18 0 0 1-.104-.445 41 41 0 0 1-.184-.893l-.087-.448-.042-.224-.04-.225h.026l-.004.018-.003.017v-.005l.04.223.044.223.086.444q.087.445.181.889.048.221.101.441.052.22.115.438.062.218.148.427.044.103.104.199a.5.5 0 0 0 .07.086.24.24 0 0 0 .094.056h-.001q.034-.002.063-.023a.3.3 0 0 0 .052-.048q.012-.012.022-.028l.02-.03c.006-.01.025-.04.036-.061a2 2 0 0 0 .162-.403l.04-.139.081-.279.004.001a7 7 0 0 1-.16.529 3 3 0 0 1-.107.254q-.016.031-.033.061t-.038.058l-.02.028-.023.025-.027.023zm0 0 .03-.018.026-.023.023-.025.02-.028q.021-.028.038-.058l.033-.06a2 2 0 0 0 .106-.255q.089-.26.158-.529l.004.001-.079.28-.039.14-.021.069-.024.068a2 2 0 0 1-.114.268q-.016.032-.036.063l-.021.03q-.01.015-.023.03a.4.4 0 0 1-.053.05.14.14 0 0 1-.071.026H6.15a.25.25 0 0 1-.1-.059.5.5 0 0 1-.073-.088 1.3 1.3 0 0 1-.109-.2 4 4 0 0 1-.152-.428 9 9 0 0 1-.119-.438q-.054-.22-.102-.442a39 39 0 0 1-.183-.888l-.086-.445-.041-.223q-.022-.111-.04-.223v-.005l.003-.018.003-.017.014-.07.013.07.08.45.081.448q.083.448.176.894c.064.298.13.594.215.886q.032.11.068.218t.081.213q.043.106.105.202L6 9.903l.018.022q.018.024.038.043c.028.025.06.048.097.057l.023-.003.021-.008zm3.679 0a.23.23 0 0 1-.097-.056q-.02-.02-.038-.042l-.017-.022-.016-.023a1.3 1.3 0 0 1-.106-.2 3 3 0 0 1-.081-.21 6 6 0 0 1-.069-.216q-.063-.217-.118-.435-.054-.22-.103-.44-.096-.441-.184-.884l-.085-.443q-.042-.222-.082-.444l.028-.001-.001.006v-.005q.04.222.082.444l.083.445q.084.444.177.886.045.222.098.441c.053.22.072.293.114.437q.06.218.146.427.043.105.104.2l.015.023.018.022q.016.023.037.042a.2.2 0 0 0 .095.057l.034-.003q.017-.003.033-.008a.3.3 0 0 0 .063-.027l.03-.019.026-.021q.014-.011.026-.024l.023-.025.044-.055.02-.028.016-.03.018-.03q.008-.015.015-.031l.03-.063.003.001a1.4 1.4 0 0 1-.103.177l-.043.053-.023.025-.025.023a1 1 0 0 1-.056.04l-.03.015-.032.011q-.017.006-.034.007-.015.002-.034.003zm0 0q.017 0 .034-.003l.033-.007.032-.012q.016-.007.03-.015a.4.4 0 0 0 .056-.04l.025-.023.024-.025a.7.7 0 0 0 .08-.11 2 2 0 0 0 .065-.12l.002.001-.03.063-.015.03-.018.03-.017.03q-.009.016-.02.03l-.042.054q-.011.015-.024.026-.012.013-.025.024l-.027.022-.03.019-.03.016q-.016.008-.034.012-.016.005-.034.008l-.035.003a.23.23 0 0 1-.098-.057q-.02-.02-.039-.042l-.017-.022-.016-.023a1.3 1.3 0 0 1-.107-.2 4 4 0 0 1-.152-.427q-.064-.216-.119-.436t-.103-.44q-.097-.442-.181-.887-.044-.22-.084-.444c-.04-.224-.055-.297-.08-.445v-.01l.015-.08.013.08.08.444.082.444q.082.444.174.886.047.22.098.44a9 9 0 0 0 .182.652q.036.106.08.21.044.105.105.2l.016.024.018.022c.01.015.025.028.037.042a.23.23 0 0 0 .096.056zm.84-2.206a1 1 0 0 0-.023.11 1 1 0 0 1-.024.11l-.03-.01a1 1 0 0 1 .039-.105 1 1 0 0 0 .038-.105zm0 0a1 1 0 0 0-.023.11 1 1 0 0 1-.024.109l-.03-.009a1 1 0 0 1 .038-.105 1 1 0 0 0 .039-.105zm.018-.055.013.008-.028-.011zm0 0a.03.03 0 0 0 .014.006l-.029-.01z"/></svg>