<svg width="541" height="281" viewBox="0 0 541 281" fill="none" xmlns="http://www.w3.org/2000/svg">
<rect y="0.531586" width="541" height="280" rx="32" fill="#FFCF00"/>
<path d="M204.438 104.532V113.852H193.846V137.802H182.801V113.852H172.195V104.532H204.438Z" fill="black"/>
<path d="M236.025 128.482V137.802H206.409V104.532H234.944V113.852H217.44V116.712H233.575V124.8H217.44V128.482H236.025Z" fill="black"/>
<path d="M266.928 128.482V137.802H239.009V104.532H250.04V128.482H266.928Z" fill="black"/>
<path d="M306.18 137.802H294.779L293.11 133.025H280.231L278.562 137.802H267.161L278.822 104.545H294.519L306.18 137.802ZM290.263 124.937L286.664 114.673L283.064 124.937H290.263Z" fill="black"/>
<path d="M215.51 166.434C215.51 174.454 206.409 175.74 200.387 175.74H182.582V142.47H199.046C206.368 142.47 214.456 143.784 214.456 151.27C214.456 154.349 212.923 156.826 210.309 158.208C213.772 159.988 215.51 162.807 215.51 166.434ZM193.626 155.526H201.099C203.083 155.526 203.603 154.445 203.603 153.569C203.603 152.638 202.933 151.79 201.099 151.79H193.626V155.526ZM200.168 166.42C202.618 166.42 204.151 166.009 204.151 164.162C204.151 162.314 202.372 161.876 200.168 161.876H193.613V166.42H200.168Z" fill="black"/>
<path d="M251.519 175.74H240.077L235.315 166.776C234.329 166.831 233.316 166.872 232.276 166.872H229.265V175.74H218.235V142.47H232.276C241.528 142.47 249.343 144.632 249.343 154.664C249.343 159.139 247.782 162.054 245.237 163.902L251.519 175.74ZM234.808 157.552C237.477 157.552 238.476 156.142 238.476 154.677C238.476 153.213 237.477 151.803 234.808 151.803H229.265V157.565H234.808V157.552Z" fill="black"/>
<path d="M290.673 175.74H279.273L277.603 170.963H264.725L263.055 175.74H251.655L263.315 142.483H279.013L290.673 175.74ZM274.757 162.875L271.157 152.611L267.558 162.875H274.757Z" fill="black"/>
<path d="M310.558 155.579C320.042 157.796 323.422 160.601 323.422 166.089C323.422 170.537 319.549 176.532 307.232 176.532C297.543 176.532 292.643 171.249 290.262 167.061L301.758 164.338C304.167 166.746 306.958 167.212 308.751 167.212C310.64 167.212 311.967 166.5 311.967 165.391C311.967 163.859 310.216 163.53 305.508 162.613C300.471 161.628 291.165 158.959 291.165 151.295C291.165 145.711 296.051 141.646 306.356 141.646C315.403 141.646 321.548 147.107 322.588 151.076L311.967 153.238C310.941 151.596 308.149 150.953 305.836 150.953C304.221 150.953 302.606 151.35 302.606 152.403C302.62 154.073 305.549 154.415 310.558 155.579Z" fill="black"/>
<path d="M337.028 142.47H325.997V175.726H337.028V142.47Z" fill="black"/>
<path d="M368.805 166.42V175.74H340.873V142.47H351.903V166.42H368.805Z" fill="black"/>
<path d="M306.741 118.327V123.897L352.205 137.761V121.16V104.545L306.741 118.327Z" fill="black"/>
<path d="M351.876 111.217H351.877C357.32 111.204 361.75 115.632 361.75 121.091C361.75 126.549 357.334 130.965 351.876 130.965C346.418 130.965 342.002 126.536 342.002 121.091C342.002 115.646 346.431 111.217 351.876 111.217Z" fill="#FFCF00" stroke="black"/>
</svg>
